<svg id="Layer_1" data-name="Layer 1" xmlns="http://www.w3.org/2000/svg" xmlns:xlink="http://www.w3.org/1999/xlink" viewBox="0 0 1125 189"><defs><style>.cls-1{fill:url(#linear-gradient);}.cls-2{fill:url(#linear-gradient-2);}.cls-3{fill:url(#linear-gradient-3);}.cls-4{fill:url(#linear-gradient-4);}.cls-5{fill:url(#linear-gradient-5);}.cls-6{fill:url(#linear-gradient-6);}.cls-7{fill:url(#linear-gradient-7);}.cls-8{fill:url(#linear-gradient-8);}.cls-9{fill:url(#linear-gradient-9);}.cls-10{fill:url(#linear-gradient-10);}.cls-11{fill:url(#linear-gradient-11);}.cls-12{fill:url(#linear-gradient-12);}</style><linearGradient id="linear-gradient" x1="89.06" y1="92.17" x2="112.64" y2="92.17" gradientUnits="userSpaceOnUse"><stop offset="0" stop-color="#e87700"/><stop offset="0.52" stop-color="#ffac2a"/><stop offset="1" stop-color="#fbae17"/></linearGradient><linearGradient id="linear-gradient-2" x1="126.48" y1="111.82" x2="204.76" y2="111.82" xlink:href="#linear-gradient"/><linearGradient id="linear-gradient-3" x1="218.26" y1="91.99" x2="291.57" y2="91.99" xlink:href="#linear-gradient"/><linearGradient id="linear-gradient-4" x1="294.99" y1="92.17" x2="318.57" y2="92.17" xlink:href="#linear-gradient"/><linearGradient id="linear-gradient-5" x1="332.42" y1="111.82" x2="410.69" y2="111.82" xlink:href="#linear-gradient"/><linearGradient id="linear-gradient-6" x1="428.29" y1="92.17" x2="451.88" y2="92.17" xlink:href="#linear-gradient"/><linearGradient id="linear-gradient-7" x1="459.91" y1="92.25" x2="524.85" y2="92.25" xlink:href="#linear-gradient"/><linearGradient id="linear-gradient-8" x1="535.44" y1="111.56" x2="611.32" y2="111.56" xlink:href="#linear-gradient"/><linearGradient id="linear-gradient-9" x1="663.62" y1="112.07" x2="776.75" y2="112.07" xlink:href="#linear-gradient"/><linearGradient id="linear-gradient-10" x1="791.45" y1="111.65" x2="869.72" y2="111.65" xlink:href="#linear-gradient"/><linearGradient id="linear-gradient-11" x1="880.49" y1="92.25" x2="945.43" y2="92.25" xlink:href="#linear-gradient"/><linearGradient id="linear-gradient-12" x1="958.93" y1="88.32" x2="1037.2" y2="88.32" xlink:href="#linear-gradient"/></defs><path class="cls-1" d="M96.41,155.14q-5.13,0-6.84-25.29-.51-7.35-.51-15,0-36.06,5.3-44.78a4.52,4.52,0,0,1,2.56-1.88q8.72,0,11.28,3.08a2.11,2.11,0,0,1,.51,1.2c0,.68-.17,3-.51,7q-1.55,21.54-1.54,34.7,0,5.3,1.88,34.69c.11,1,.17,1.77.17,2.22,0,1.82-2.62,3.08-7.86,3.76A28.86,28.86,0,0,1,96.41,155.14ZM89.91,41q0-9.73,8.72-11.45a14.73,14.73,0,0,1,3.25-.34q5.81,0,9.05,5.64A12,12,0,0,1,112.64,41a11.69,11.69,0,0,1-6.15,10.77,10.52,10.52,0,0,1-5,1.36q-8.72,0-10.93-7.69A13.78,13.78,0,0,1,89.91,41ZM102.05,84.9q2.73,0,3.58-6.32a10.91,10.91,0,0,0,.18-1.88c-.12-3.19-1-4.9-2.57-5.13-1.94,1-3.13,3.71-3.59,8C99.77,83,100.56,84.79,102.05,84.9Zm3.58-45.63a3.19,3.19,0,0,0,2.23-2.39,3.31,3.31,0,0,0-2.23-3.08,2.88,2.88,0,0,0-.85-.17A2.72,2.72,0,0,0,102.39,36a3.29,3.29,0,0,0,2.22,3.08A3,3,0,0,0,105.63,39.27Z"/><path class="cls-2" d="M139.81,155.14q-9.57,0-12-3.08a2.52,2.52,0,0,1-.34-1q0-2.39.34-5.81.69-10.08.69-29.91,0-11.28-1.88-34.86c-.12-1.14-.18-2-.18-2.56,0-1.83,2.4-3.14,7.18-3.94a31.38,31.38,0,0,1,4.62-.34q3.93.34,5.81,10.94a39.71,39.71,0,0,1,25.8-15.89,35.55,35.55,0,0,1,6-.52q19.65,0,26.15,20.34a59.86,59.86,0,0,1,2.74,18.63V151q-.18,4.28-3.59,4.44-4.62,0-6.67-3.24a4.38,4.38,0,0,1-.68-2.05V106.78q0-18.28-10.26-25a19.11,19.11,0,0,0-10.42-2.91q-12.3,0-20.51,9.74A32.42,32.42,0,0,0,146,103.87q.17,4.11.17,12.14,0,35.37-3.25,38.45a2.56,2.56,0,0,1-1.88.68Zm57.94-65.28A1.72,1.72,0,0,0,199,88a8.1,8.1,0,0,0-3.08-6.15,2.32,2.32,0,0,0-1.71-1,2,2,0,0,0-1.37,1.88,8.1,8.1,0,0,0,3.08,6.15A6.22,6.22,0,0,0,197.75,89.86Z"/><path class="cls-3" d="M281.15,50.21q-3.42-11.28-12.82-11.45-14.52,0-20.68,28.54-1.2,5.81-1.88,12.13c1.82-.11,4.62-.17,8.38-.17q24.77,0,28.54,5.3a3.07,3.07,0,0,1,.51,1.54c0,2.73-1.71,4.56-5.13,5.47a10.24,10.24,0,0,1-3.25.51,13.62,13.62,0,0,1-3.58-.51Q256.36,88,249.19,88a37,37,0,0,0-4.1.17q-.51,7-.51,13.5v48.71c0,2-1.83,3.41-5.47,4.1a17.27,17.27,0,0,1-3.25.34q-6.84,0-8.37-3.42a1.82,1.82,0,0,1-.35-1V101.65q0-6.66.17-9.74a9.19,9.19,0,0,1-2.9.51c-3.19,0-5.19-1.37-6-4.1a7.46,7.46,0,0,1-.17-1.54q.33-3.42,9.74-5.3,5.13-52.11,40.33-52.29,11.63,0,18.8,8a15.67,15.67,0,0,1,4.44,10.6q0,3.75-4.27,5.12a5.94,5.94,0,0,1-1.88.35A4.67,4.67,0,0,1,281.15,50.21Zm-4.62,38.45a3.17,3.17,0,0,0,2.22-2.39,2.92,2.92,0,0,0-2.22-3.08,3,3,0,0,0-.68-.17c-.91,0-1.65.63-2.22,1.88a2.48,2.48,0,0,0-.17.69,2.84,2.84,0,0,0,2.39,2.9A1.43,1.43,0,0,0,276.53,88.66Zm10.26-41.53A3.17,3.17,0,0,0,289,44.74a3.37,3.37,0,0,0-2.91-3.25,3.18,3.18,0,0,0-2.22,2.4A2.91,2.91,0,0,0,286.1,47,1.47,1.47,0,0,0,286.79,47.13Z"/><path class="cls-4" d="M302.34,155.14q-5.13,0-6.84-25.29-.51-7.35-.51-15,0-36.06,5.3-44.78a4.52,4.52,0,0,1,2.56-1.88q8.72,0,11.28,3.08a2.11,2.11,0,0,1,.51,1.2c0,.68-.17,3-.51,7q-1.53,21.54-1.54,34.7,0,5.3,1.88,34.69c.11,1,.17,1.77.17,2.22,0,1.82-2.62,3.08-7.86,3.76A28.86,28.86,0,0,1,302.34,155.14ZM295.84,41q0-9.73,8.72-11.45a14.86,14.86,0,0,1,3.25-.34q5.81,0,9.06,5.64a12,12,0,0,1,1.7,6.15,11.69,11.69,0,0,1-6.15,10.77,10.52,10.52,0,0,1-4.95,1.36q-8.72,0-10.94-7.69A13.78,13.78,0,0,1,295.84,41ZM308,84.9q2.73,0,3.59-6.32a11.91,11.91,0,0,0,.17-1.88c-.12-3.19-1-4.9-2.57-5.13-1.93,1-3.13,3.71-3.58,8Q305.76,84.73,308,84.9Zm3.59-45.63a3.17,3.17,0,0,0,2.22-2.39,3.3,3.3,0,0,0-2.22-3.08,2.94,2.94,0,0,0-.86-.17,2.54,2.54,0,0,0-2.22,1.71,3,3,0,0,0-.17.68,3.29,3.29,0,0,0,2.22,3.08A3.09,3.09,0,0,0,311.57,39.27Z"/><path class="cls-5" d="M345.75,155.14q-9.57,0-12-3.08a2.52,2.52,0,0,1-.34-1q0-2.39.34-5.81.69-10.08.69-29.91,0-11.28-1.88-34.86c-.12-1.14-.17-2-.17-2.56q0-2.75,7.17-3.94a31.38,31.38,0,0,1,4.62-.34q3.93.34,5.81,10.94a39.73,39.73,0,0,1,25.81-15.89,35.47,35.47,0,0,1,6-.52q19.65,0,26.14,20.34a59.56,59.56,0,0,1,2.74,18.63V151c-.12,2.85-1.31,4.33-3.59,4.44q-4.62,0-6.67-3.24a4.38,4.38,0,0,1-.68-2.05V106.78q0-18.28-10.25-25a19.17,19.17,0,0,0-10.43-2.91q-12.3,0-20.51,9.74a32.52,32.52,0,0,0-6.66,15.21q.17,4.11.17,12.14,0,35.37-3.25,38.45a2.55,2.55,0,0,1-1.88.68Zm57.93-65.28a1.71,1.71,0,0,0,1.2-1.88,8.1,8.1,0,0,0-3.08-6.15,2.32,2.32,0,0,0-1.71-1,1.93,1.93,0,0,0-1.36,1.88,8.08,8.08,0,0,0,3.07,6.15A6.34,6.34,0,0,0,403.68,89.86Z"/><path class="cls-6" d="M435.64,155.14q-5.13,0-6.84-25.29-.51-7.35-.51-15,0-36.06,5.3-44.78a4.52,4.52,0,0,1,2.56-1.88q8.72,0,11.28,3.08a2.11,2.11,0,0,1,.51,1.2c0,.68-.17,3-.51,7q-1.53,21.54-1.54,34.7,0,5.3,1.88,34.69a20.9,20.9,0,0,1,.17,2.22c0,1.82-2.62,3.08-7.86,3.76A28.86,28.86,0,0,1,435.64,155.14ZM429.15,41q0-9.73,8.71-11.45a14.86,14.86,0,0,1,3.25-.34q5.81,0,9.06,5.64A12,12,0,0,1,451.88,41a11.7,11.7,0,0,1-6.16,10.77,10.52,10.52,0,0,1-5,1.36q-8.72,0-10.94-7.69A13.78,13.78,0,0,1,429.15,41ZM441.28,84.9q2.73,0,3.59-6.32A11.91,11.91,0,0,0,445,76.7q-.18-4.78-2.56-5.13-2.91,1.55-3.59,8Q439.06,84.73,441.28,84.9Zm3.59-45.63a3.17,3.17,0,0,0,2.22-2.39,3.3,3.3,0,0,0-2.22-3.08,2.94,2.94,0,0,0-.86-.17,2.54,2.54,0,0,0-2.22,1.71,3,3,0,0,0-.17.68,3.29,3.29,0,0,0,2.22,3.08A3.09,3.09,0,0,0,444.87,39.27Z"/><path class="cls-7" d="M475.12,78.75c-.46.11-1.26.34-2.4.68A22.59,22.59,0,0,1,466.06,81c-3.19,0-5.19-1.37-6-4.1a7.46,7.46,0,0,1-.17-1.54q.33-3.93,15.21-6.32V34q0-2.89,5.12-4.1a14.36,14.36,0,0,1,3.76-.51q6.5,0,8.38,3.42a2.82,2.82,0,0,1,.34,1.19V67.64h3.08q23.58,0,28.19,5.13a3.06,3.06,0,0,1,.86,1.88q0,4.27-5.13,5.64a14,14,0,0,1-3.07.34,12.41,12.41,0,0,1-3.59-.51q-14.7-3.6-20.34-3.76v39.13q0,25.13,5.81,29.4a3.71,3.71,0,0,0,2.05.68q9.75-.16,13-11.45a4.5,4.5,0,0,1,4.1-3.08,6.06,6.06,0,0,1,5.64,3.42,5.71,5.71,0,0,1,.51,2.22q0,9.06-9.4,14.7a26.54,26.54,0,0,1-13.84,3.76q-25.47-.34-25.46-39.65Zm10.93-32q2.91-1,3.42-8-.17-4.95-2.39-5.13c-1.94,1-3.13,3.71-3.59,8C483.6,44.86,484.46,46.56,486.05,46.79Zm32.13,30.59c.91,0,1.65-.62,2.23-1.88a3,3,0,0,0,.17-.68,3.31,3.31,0,0,0-2.23-3.08,2.88,2.88,0,0,0-.85-.17A3.17,3.17,0,0,0,515.28,74a3,3,0,0,0,2.22,3.25A2.52,2.52,0,0,0,518.18,77.38Z"/><path class="cls-8" d="M574.92,154.63q-22,0-32.81-17.95a47.57,47.57,0,0,1-6.67-25q0-19.82,12.14-32.13,10.93-11.1,27.85-11.1,24.11,0,32,13.5a20.37,20.37,0,0,1,2.74,10.25q0,11.11-11.28,19.65-11.79,8.55-28.71,8.55a42,42,0,0,1-16.92-3.08q1.71,16.24,12.13,23.42a21.35,21.35,0,0,0,12.48,3.93q11.45,0,23.24-14,4.44-5.29,5.13-5.3a4.66,4.66,0,0,1,4.78,3.25,4.18,4.18,0,0,1,.34,1.54q0,4.44-6.49,11.45A39,39,0,0,1,574.92,154.63Zm-21.7-48a25.85,25.85,0,0,0,14.52,3.93q19.14,0,27.52-9.4,3.59-3.93,3.59-8,0-8.88-9.57-12.64a32.26,32.26,0,0,0-11.45-1.88q-14.19,0-21,14.52A48,48,0,0,0,553.22,106.61Zm51.44-18.12a1.7,1.7,0,0,0,1.19-1.88,8.24,8.24,0,0,0-3.07-6.32,2.39,2.39,0,0,0-1.54-.86,2,2,0,0,0-1.37,1.88A8.13,8.13,0,0,0,603,87.47,2.34,2.34,0,0,0,604.66,88.49Z"/><path class="cls-9" d="M677,155.14q-9.57,0-12-3.08a2.58,2.58,0,0,1-.35-1q0-2.39.35-5.81.68-10.08.68-29.91,0-11.28-1.88-34.86c-.12-1.14-.17-2-.17-2.56q0-2.75,7.18-3.94a31.24,31.24,0,0,1,4.61-.34q3.58.34,5.47,8.55,10.08-13,22.73-13.5,12.81,0,20.16,12.64a36.56,36.56,0,0,1,2.06,4.1q8-14.52,21.36-16.4a17.17,17.17,0,0,1,3.42-.34q13,0,20.33,12.81,5.8,10.26,5.81,25.64V151q-.16,4.28-3.59,4.44-4.6,0-6.66-3.24a4.27,4.27,0,0,1-.68-2.05V106.78q0-18.8-9.92-25.3a13,13,0,0,0-7.17-2.22q-9.06,0-14.7,10.6a43.21,43.21,0,0,0-4.45,17.26V151q-.17,4.28-3.41,4.44-4.62,0-6.67-3.24a4.27,4.27,0,0,1-.68-2.05V106.78q0-18.63-9.91-25.13a13.18,13.18,0,0,0-7.35-2.39q-8.89,0-14.53,10.43a40.31,40.31,0,0,0-3.93,13.16q.17,4.28.17,13.16,0,35.37-3.25,38.45a2.55,2.55,0,0,1-1.88.68Zm44.26-67.85a1.69,1.69,0,0,0,1.2-1.88,8.27,8.27,0,0,0-3.08-6.32,2.34,2.34,0,0,0-1.54-.85,2,2,0,0,0-1.54,1.88,8.1,8.1,0,0,0,3.08,6.15A6.14,6.14,0,0,0,721.21,87.29Zm48.19,1.54A1.69,1.69,0,0,0,770.6,87a8.06,8.06,0,0,0-3.08-6.15,2.35,2.35,0,0,0-1.7-1,2,2,0,0,0-1.37,1.88,8.09,8.09,0,0,0,3.07,6.16A6.25,6.25,0,0,0,769.4,88.83Z"/><path class="cls-10" d="M856.39,155.14H855.2q-2.57,0-3.42-3.42a51.33,51.33,0,0,1-1.37-10.93q-10.77,12.3-26.15,14.18c-1.36.11-2.68.17-3.93.17q-19.65,0-26.32-20.34a61.68,61.68,0,0,1-2.56-18.45,58.61,58.61,0,0,1,10.08-33.67q9.75-14.36,22.9-14.53,18.12.18,28.89,15.73c1.25-3.53,2.79-5.36,4.61-5.47q9.06,0,11.45,3.07a1.86,1.86,0,0,1,.34,1q0,1.2-.51,6a294.85,294.85,0,0,0-1.71,30.42q0,12.65,1,29.4V151c0,1.82-2.63,3.08-7.87,3.76A27.76,27.76,0,0,1,856.39,155.14ZM827,78.24q-12.13,0-19.49,14.69a52.72,52.72,0,0,0-5.29,23.59q0,17.94,10.08,25.63a20.46,20.46,0,0,0,12.65,4.1q11.1,0,18.62-9.74a36,36,0,0,0,6.5-15.21v-1.71q0-13.16.68-21a49.76,49.76,0,0,1-2.56-4.27Q842.9,84.22,837.42,81A20.06,20.06,0,0,0,827,78.24Zm35.54,18.28q2.91-1,3.42-8c-.11-3.42-.91-5.18-2.39-5.3-1.82,0-3,2-3.59,6a15.6,15.6,0,0,0-.17,2.06q0,4.44,2.22,5.12A1.23,1.23,0,0,0,862.54,96.52Z"/><path class="cls-11" d="M895.7,78.75c-.46.11-1.26.34-2.39.68A22.71,22.71,0,0,1,886.64,81q-4.78,0-6-4.1a7.46,7.46,0,0,1-.17-1.54q.33-3.93,15.21-6.32V34q0-2.89,5.13-4.1a14.23,14.23,0,0,1,3.75-.51q6.49,0,8.38,3.42A2.68,2.68,0,0,1,913.3,34V67.64h3.08q23.58,0,28.2,5.13a3.1,3.1,0,0,1,.85,1.88q0,4.27-5.13,5.64a14,14,0,0,1-3.07.34,12.46,12.46,0,0,1-3.59-.51q-14.7-3.6-20.34-3.76v39.13q0,25.13,5.81,29.4a3.71,3.71,0,0,0,2,.68q9.75-.16,13-11.45a4.5,4.5,0,0,1,4.1-3.08,6.06,6.06,0,0,1,5.64,3.42,5.71,5.71,0,0,1,.51,2.22q0,9.06-9.4,14.7a26.54,26.54,0,0,1-13.84,3.76q-25.47-.34-25.46-39.65Zm10.94-32q2.9-1,3.41-8-.16-4.95-2.39-5.13c-1.94,1-3.13,3.71-3.59,8C904.18,44.86,905,46.56,906.64,46.79Zm32.12,30.59c.91,0,1.66-.62,2.23-1.88a3,3,0,0,0,.17-.68,3.3,3.3,0,0,0-2.22-3.08,3,3,0,0,0-.86-.17A3.17,3.17,0,0,0,935.86,74a3,3,0,0,0,2.22,3.25A2.52,2.52,0,0,0,938.76,77.38Z"/><path class="cls-12" d="M972.26,155.14q-9.57,0-12-3.08a2.52,2.52,0,0,1-.34-1q0-5.47.34-13.16.86-22.56.85-68,0-13.5-2-41.53c-.11-1.36-.17-2.39-.17-3.07,0-1.82,2.51-3.08,7.52-3.76a27.86,27.86,0,0,1,4.27-.34q7.86.35,7.86,49.39V82a39,39,0,0,1,26.49-13.68c1.14-.11,2.22-.17,3.25-.17q19.65,0,26.15,20.34a59.86,59.86,0,0,1,2.73,18.63V151q-.17,4.28-3.59,4.44-4.6,0-6.66-3.24a4.3,4.3,0,0,1-.69-2.05V106.78q0-18.28-10.25-25a19.13,19.13,0,0,0-10.42-2.91,25.61,25.61,0,0,0-20.34,9.4,33.78,33.78,0,0,0-6.84,15q-.51,47.85-3.59,51.27a2.26,2.26,0,0,1-1.36.51Zm-1.88-116c1.59-.11,2.45-1.82,2.56-5.13q0-6.15-2.56-7.69a2.8,2.8,0,0,0-1-.34q-2.4.18-2.57,5.13,0,6.15,2.57,7.69A2.52,2.52,0,0,0,970.38,39.1ZM1030,89.86a1.71,1.71,0,0,0,1.2-1.88,8.06,8.06,0,0,0-3.08-6.15,2.32,2.32,0,0,0-1.7-1,1.94,1.94,0,0,0-1.37,1.88,8.08,8.08,0,0,0,3.07,6.15A6.34,6.34,0,0,0,1030,89.86Z"/></svg>